<svg xmlns="http://www.w3.org/2000/svg" width="64" height="64" viewBox="0 0 16.933 16.933"><g transform="translate(264.405 -1282.338) scale(.26458)"><ellipse cx="-4878.631" cy="-967.325" fill="#fff" rx="10.999" ry="26.999" transform="rotate(-90)"/><ellipse cx="1603.615" cy="-4709.371" fill="#d1edf1" rx="10.96" ry="28.17" transform="matrix(.86624 .49963 .50037 -.86581 0 0)"/><ellipse cx="3278.654" cy="-3742.767" fill="#d1edf1" rx="10.96" ry="28.17" transform="rotate(150.025) skewX(.049)"/><path fill="#67bde1" d="m -967.32422,4873.6317 a 4.9986753,4.9986753 0 0 0 -4.99805,5 4.9986753,4.9986753 0 0 0 4.99805,4.9981 4.9986753,4.9986753 0 0 0 4.99805,-4.9981 4.9986753,4.9986753 0 0 0 -4.99805,-5 z"/><g stroke="#586597"><ellipse cx="-4878.631" cy="-967.325" fill="none" stroke-linecap="round" stroke-linejoin="round" stroke-width="2.003" rx="10.999" ry="26.999" transform="rotate(-90)"/><ellipse cx="3278.654" cy="-3742.767" fill="none" stroke-linecap="round" stroke-linejoin="round" stroke-width="2.003" rx="10.96" ry="28.17" transform="rotate(150.025) skewX(.049)"/><ellipse cx="1603.615" cy="-4709.371" fill="none" stroke-linecap="round" stroke-linejoin="round" stroke-width="2.003" rx="10.96" ry="28.17" transform="matrix(.86624 .49963 .50037 -.86581 0 0)"/></g></g></svg>