<svg version="1.2" baseProfile="tiny-ps" xmlns="http://www.w3.org/2000/svg" viewBox="0 0 700 691" width="700" height="691">
	<title>Group 3(1)-svg</title>
	<style>
		tspan { white-space:pre }
		.shp0 { fill: #fcddcd } 
		.shp1 { fill: #ffffff } 
	</style>
	<path id="Layer" class="shp0" d="M702.3 -17.27L702.3 696.76L6.34 696.76L702.3 -17.27Z" />
	<path id="Layer" class="shp0" d="M294.4 555.1C245.98 555.1 206.83 517.65 206.83 471.32C206.83 424.99 245.98 387.54 294.4 387.54C342.83 387.54 381.98 424.99 381.98 471.32C381.98 517.65 342.83 555.1 294.4 555.1Z" />
	<path id="Layer" class="shp0" d="M128.77 733.04C65.52 733.04 14.4 695.58 14.4 649.25C14.4 602.92 65.52 565.47 128.77 565.47C192.01 565.47 243.13 602.92 243.13 649.25C243.13 695.58 192.01 733.04 128.77 733.04Z" />
	<path id="Layer" class="shp0" d="M486.54 374.29C437.96 374.29 398.68 336.71 398.68 290.22C398.68 243.73 437.96 206.15 486.54 206.15C535.13 206.15 574.4 243.73 574.4 290.22C574.4 336.71 535.13 374.29 486.54 374.29Z" />
	<path id="Layer" class="shp1" d="M78.94 564.77C35.29 550.8 18.24 510.3 40.81 474.15C63.37 438 116.9 420.07 160.55 434.03C204.21 447.99 221.25 488.49 198.69 524.64C176.12 560.79 122.59 578.73 78.94 564.77Z" />
	<path id="Layer" class="shp1" d="M271.12 383.79C227.47 369.83 210.42 329.33 232.99 293.18C255.55 257.03 309.08 239.09 352.73 253.05C396.39 267.02 413.43 307.52 390.87 343.67C368.3 379.82 314.78 397.75 271.12 383.79Z" />
	<path id="Layer" class="shp0" d="M671.19 150.29C622.77 150.29 583.62 112.84 583.62 66.51C583.62 20.18 622.77 -17.27 671.19 -17.27C719.62 -17.27 758.77 20.18 758.77 66.51C758.77 112.84 719.62 150.29 671.19 150.29Z" />
	<path id="Layer" class="shp1" d="M469.81 202.82C426.15 188.86 409.43 147.84 432.39 111.05C455.35 74.27 509.2 55.82 552.86 69.78C596.51 83.74 613.23 124.76 590.27 161.54C567.31 198.33 513.46 216.78 469.81 202.82Z" />
</svg>