<svg xmlns="http://www.w3.org/2000/svg" fill="#fff" enable-background="new 0 0 24 24" viewBox="0 0 24 24"><path d="M15.75,16.331c-2.342,0-4.248-1.943-4.248-4.332s1.906-4.332,4.248-4.332s4.248,1.943,4.248,4.332S18.092,16.331,15.75,16.331z M15.75,8.667c-1.791,0-3.248,1.495-3.248,3.332s1.457,3.332,3.248,3.332s3.248-1.495,3.248-3.332S17.541,8.667,15.75,8.667z"/><path d="M8.249,24C5.906,24,4,22.057,4,19.668c0-1.662,0.921-3.109,2.269-3.836C4.921,15.105,4,13.66,4,12c0-1.66,0.922-3.106,2.271-3.834C4.922,7.439,4,5.993,4,4.332C4,1.943,5.906,0,8.249,0h7.503C18.094,0,20,1.945,20,4.336c0,2.389-1.906,4.332-4.249,4.332l-3.254-0.001v11.001C12.497,22.057,10.591,24,8.249,24z M8.249,16.332C6.458,16.332,5,17.829,5,19.668C5,21.505,6.458,23,8.249,23s3.249-1.495,3.249-3.332V8.167c0-0.276,0.224-0.5,0.5-0.5h3.753c0,0,0.001,0,0.001,0c0.866,0,1.68-0.345,2.292-0.972C18.661,6.066,19,5.228,19,4.336C19,2.497,17.542,1,15.751,1H8.249C6.458,1,5,2.495,5,4.332c0,1.837,1.458,3.332,3.249,3.332c0.276,0,0.5,0.224,0.5,0.5s-0.223,0.5-0.499,0.5C6.458,8.668,5,10.165,5,12c0,1.837,1.458,3.332,3.249,3.332c0.276,0,0.5,0.224,0.5,0.5S8.525,16.332,8.249,16.332z"/></svg>